<svg width="68" height="60" viewBox="0 0 68 60" fill="none" xmlns="http://www.w3.org/2000/svg">
<g id="Slider_Icons_Satteldach.svg">
<path id="Vector" d="M55.512 27.0838C50.3434 23.2467 42.4303 17.3721 33.93 11.0615C25.4298 17.3721 17.5161 23.2472 12.3481 27.0838" stroke="#02FF83" stroke-width="0.555463" stroke-miterlimit="10" stroke-linecap="round" stroke-linejoin="round"/>
<g id="Group">
<g id="Group_2">
<path id="Vector_2" d="M33.99 13.405C28.1771 17.7204 22.3642 22.0358 18.216 25.1153V29.5345V47.2549C18.216 48.1753 18.962 48.9213 19.8824 48.9213H48.0977C49.0181 48.9213 49.764 48.1753 49.764 47.2549V29.5345V25.1153C45.6159 22.0358 39.8029 17.7204 33.99 13.405Z" fill="#F1F1F2" stroke="#072543" stroke-width="0.555463" stroke-miterlimit="10" stroke-linecap="round" stroke-linejoin="round"/>
<g id="Vector_3">
<path d="M30.3756 48.9213V42.1963C30.3756 41.6242 30.1234 41.1459 29.6196 40.761C29.1158 40.3766 28.4887 40.1844 27.7383 40.1844C26.9879 40.1844 26.3613 40.3766 25.8569 40.761C25.3531 41.1454 25.101 41.6236 25.101 42.1963V48.9213" fill="#072543"/>
<path d="M30.3756 48.9213V42.1963C30.3756 41.6242 30.1234 41.1459 29.6196 40.761C29.1158 40.3766 28.4887 40.1844 27.7383 40.1844C26.9879 40.1844 26.3613 40.3766 25.8569 40.761C25.3531 41.1454 25.101 41.6236 25.101 42.1963V48.9213" stroke="#072543" stroke-width="0.555463" stroke-miterlimit="10"/>
</g>
<path id="Vector_4" d="M29.8202 34.1521H25.6564C25.3498 34.1521 25.101 33.9033 25.101 33.5966V29.4329C25.101 29.1263 25.3498 28.8774 25.6564 28.8774H29.8202C30.1268 28.8774 30.3756 29.1263 30.3756 29.4329V33.5966C30.3756 33.9033 30.1273 34.1521 29.8202 34.1521Z" stroke="#072543" stroke-width="0.555463" stroke-miterlimit="10"/>
<path id="Vector_5" d="M42.7036 34.1521H38.5398C38.2332 34.1521 37.9843 33.9033 37.9843 33.5966V29.4329C37.9843 29.1263 38.2332 28.8774 38.5398 28.8774H42.7036C43.0102 28.8774 43.259 29.1263 43.259 29.4329V33.5966C43.259 33.9033 43.0102 34.1521 42.7036 34.1521Z" stroke="#072543" stroke-width="0.555463" stroke-miterlimit="10"/>
<path id="Vector_6" d="M42.7036 45.4591H38.5398C38.2332 45.4591 37.9843 45.2102 37.9843 44.9036V40.7399C37.9843 40.4333 38.2332 40.1844 38.5398 40.1844H42.7036C43.0102 40.1844 43.259 40.4333 43.259 40.7399V44.9036C43.259 45.2108 43.0102 45.4591 42.7036 45.4591Z" stroke="#072543" stroke-width="0.555463" stroke-miterlimit="10"/>
</g>
</g>
</g>
</svg>
